<mxfile host="app.diagrams.net" modified="2023-09-13T06:25:42.655Z" agent="Mozilla/5.0 (Windows NT 10.0; Win64; x64) AppleWebKit/537.36 (KHTML, like Gecko) Chrome/116.0.0.0 Safari/537.36" etag="KTKHFendG7-libxYikNw" version="21.6.2" type="github" pages="4">
  <diagram name="Page-1" id="KIVGWRagReRim-nVpBeQ">
    <mxGraphModel dx="1050" dy="1674" grid="1" gridSize="10" guides="1" tooltips="1" connect="0" arrows="1" fold="1" page="1" pageScale="1" pageWidth="850" pageHeight="1100" math="0" shadow="0">
      <root>
        <mxCell id="0" />
        <mxCell id="1" parent="0" />
        <mxCell id="pWw4nJTFrqHdKG2Z5HSr-53" style="edgeStyle=orthogonalEdgeStyle;rounded=0;orthogonalLoop=1;jettySize=auto;html=1;entryX=0.5;entryY=0;entryDx=0;entryDy=0;entryPerimeter=0;" parent="1" edge="1">
          <mxGeometry relative="1" as="geometry" />
        </mxCell>
        <mxCell id="pWw4nJTFrqHdKG2Z5HSr-2" value="1" style="strokeWidth=2;html=1;shape=mxgraph.flowchart.start_2;whiteSpace=wrap;container=0;" parent="1" vertex="1">
          <mxGeometry x="675" width="40" height="40" as="geometry" />
        </mxCell>
        <mxCell id="pWw4nJTFrqHdKG2Z5HSr-145" style="edgeStyle=orthogonalEdgeStyle;rounded=0;orthogonalLoop=1;jettySize=auto;html=1;" parent="1" source="pWw4nJTFrqHdKG2Z5HSr-4" target="pWw4nJTFrqHdKG2Z5HSr-19" edge="1">
          <mxGeometry relative="1" as="geometry">
            <Array as="points">
              <mxPoint x="760" y="90" />
            </Array>
          </mxGeometry>
        </mxCell>
        <mxCell id="pWw4nJTFrqHdKG2Z5HSr-4" value="2" style="strokeWidth=2;html=1;shape=mxgraph.flowchart.start_2;whiteSpace=wrap;container=0;" parent="1" vertex="1">
          <mxGeometry x="675" y="70" width="40" height="40" as="geometry" />
        </mxCell>
        <mxCell id="pWw4nJTFrqHdKG2Z5HSr-7" style="edgeStyle=orthogonalEdgeStyle;rounded=0;orthogonalLoop=1;jettySize=auto;html=1;entryX=0.5;entryY=0;entryDx=0;entryDy=0;entryPerimeter=0;" parent="1" source="pWw4nJTFrqHdKG2Z5HSr-2" target="pWw4nJTFrqHdKG2Z5HSr-4" edge="1">
          <mxGeometry relative="1" as="geometry" />
        </mxCell>
        <mxCell id="pWw4nJTFrqHdKG2Z5HSr-8" value="3" style="strokeWidth=2;html=1;shape=mxgraph.flowchart.start_2;whiteSpace=wrap;container=0;" parent="1" vertex="1">
          <mxGeometry x="615" y="110" width="40" height="40" as="geometry" />
        </mxCell>
        <mxCell id="pWw4nJTFrqHdKG2Z5HSr-10" style="edgeStyle=orthogonalEdgeStyle;rounded=0;orthogonalLoop=1;jettySize=auto;html=1;entryX=0.5;entryY=0;entryDx=0;entryDy=0;entryPerimeter=0;" parent="1" source="pWw4nJTFrqHdKG2Z5HSr-4" target="pWw4nJTFrqHdKG2Z5HSr-8" edge="1">
          <mxGeometry relative="1" as="geometry" />
        </mxCell>
        <mxCell id="pWw4nJTFrqHdKG2Z5HSr-12" value="T" style="text;strokeColor=none;align=center;fillColor=none;html=1;verticalAlign=middle;whiteSpace=wrap;rounded=0;container=0;" parent="1" vertex="1">
          <mxGeometry x="625" y="60" width="60" height="30" as="geometry" />
        </mxCell>
        <mxCell id="pWw4nJTFrqHdKG2Z5HSr-14" value="F" style="text;strokeColor=none;align=center;fillColor=none;html=1;verticalAlign=middle;whiteSpace=wrap;rounded=0;container=0;" parent="1" vertex="1">
          <mxGeometry x="715" y="60" width="60" height="30" as="geometry" />
        </mxCell>
        <mxCell id="pWw4nJTFrqHdKG2Z5HSr-54" value="T" style="text;strokeColor=none;align=center;fillColor=none;html=1;verticalAlign=middle;whiteSpace=wrap;rounded=0;container=0;" parent="1" vertex="1">
          <mxGeometry x="575" y="130" width="20" height="20" as="geometry" />
        </mxCell>
        <mxCell id="pWw4nJTFrqHdKG2Z5HSr-56" value="4" style="strokeWidth=2;html=1;shape=mxgraph.flowchart.start_2;whiteSpace=wrap;direction=south;container=0;" parent="1" vertex="1">
          <mxGeometry x="575" y="150" width="40" height="40" as="geometry" />
        </mxCell>
        <mxCell id="pWw4nJTFrqHdKG2Z5HSr-143" value="" style="edgeStyle=orthogonalEdgeStyle;rounded=0;orthogonalLoop=1;jettySize=auto;html=1;" parent="1" source="pWw4nJTFrqHdKG2Z5HSr-57" target="pWw4nJTFrqHdKG2Z5HSr-142" edge="1">
          <mxGeometry relative="1" as="geometry" />
        </mxCell>
        <mxCell id="pWw4nJTFrqHdKG2Z5HSr-57" value="14" style="strokeWidth=2;html=1;shape=mxgraph.flowchart.start_2;whiteSpace=wrap;container=0;" parent="1" vertex="1">
          <mxGeometry x="655" y="160" width="40" height="40" as="geometry" />
        </mxCell>
        <mxCell id="pWw4nJTFrqHdKG2Z5HSr-16" value="T" style="text;strokeColor=none;align=center;fillColor=none;html=1;verticalAlign=middle;whiteSpace=wrap;rounded=0;container=0;" parent="1" vertex="1">
          <mxGeometry x="625" y="60" width="60" height="30" as="geometry" />
        </mxCell>
        <mxCell id="pWw4nJTFrqHdKG2Z5HSr-17" style="edgeStyle=orthogonalEdgeStyle;rounded=0;orthogonalLoop=1;jettySize=auto;html=1;entryX=0.5;entryY=0;entryDx=0;entryDy=0;entryPerimeter=0;" parent="1" target="pWw4nJTFrqHdKG2Z5HSr-18" edge="1">
          <mxGeometry relative="1" as="geometry">
            <mxPoint x="675" y="90" as="sourcePoint" />
          </mxGeometry>
        </mxCell>
        <mxCell id="pWw4nJTFrqHdKG2Z5HSr-62" style="edgeStyle=orthogonalEdgeStyle;rounded=0;orthogonalLoop=1;jettySize=auto;html=1;entryX=0;entryY=0.5;entryDx=0;entryDy=0;entryPerimeter=0;" parent="1" source="pWw4nJTFrqHdKG2Z5HSr-18" target="pWw4nJTFrqHdKG2Z5HSr-56" edge="1">
          <mxGeometry relative="1" as="geometry">
            <Array as="points">
              <mxPoint x="595" y="130" />
            </Array>
          </mxGeometry>
        </mxCell>
        <mxCell id="pWw4nJTFrqHdKG2Z5HSr-63" style="edgeStyle=orthogonalEdgeStyle;rounded=0;orthogonalLoop=1;jettySize=auto;html=1;entryX=0.5;entryY=0;entryDx=0;entryDy=0;entryPerimeter=0;" parent="1" source="pWw4nJTFrqHdKG2Z5HSr-18" target="pWw4nJTFrqHdKG2Z5HSr-57" edge="1">
          <mxGeometry relative="1" as="geometry">
            <Array as="points">
              <mxPoint x="675" y="130" />
            </Array>
          </mxGeometry>
        </mxCell>
        <mxCell id="pWw4nJTFrqHdKG2Z5HSr-18" value="3" style="strokeWidth=2;html=1;shape=mxgraph.flowchart.start_2;whiteSpace=wrap;container=0;" parent="1" vertex="1">
          <mxGeometry x="615" y="110" width="40" height="40" as="geometry" />
        </mxCell>
        <mxCell id="pWw4nJTFrqHdKG2Z5HSr-141" value="" style="edgeStyle=orthogonalEdgeStyle;rounded=0;orthogonalLoop=1;jettySize=auto;html=1;" parent="1" source="pWw4nJTFrqHdKG2Z5HSr-19" target="pWw4nJTFrqHdKG2Z5HSr-137" edge="1">
          <mxGeometry relative="1" as="geometry" />
        </mxCell>
        <mxCell id="pWw4nJTFrqHdKG2Z5HSr-19" value="15" style="strokeWidth=2;html=1;shape=mxgraph.flowchart.start_2;whiteSpace=wrap;container=0;" parent="1" vertex="1">
          <mxGeometry x="735" y="100" width="40" height="40" as="geometry" />
        </mxCell>
        <mxCell id="pWw4nJTFrqHdKG2Z5HSr-20" value="F" style="text;strokeColor=none;align=center;fillColor=none;html=1;verticalAlign=middle;whiteSpace=wrap;rounded=0;container=0;" parent="1" vertex="1">
          <mxGeometry x="715" y="60" width="60" height="30" as="geometry" />
        </mxCell>
        <mxCell id="pWw4nJTFrqHdKG2Z5HSr-58" value="F" style="text;strokeColor=none;align=center;fillColor=none;html=1;verticalAlign=middle;whiteSpace=wrap;rounded=0;container=0;" parent="1" vertex="1">
          <mxGeometry x="675" y="130" width="30" height="20" as="geometry" />
        </mxCell>
        <mxCell id="pWw4nJTFrqHdKG2Z5HSr-64" value="5" style="strokeWidth=2;html=1;shape=mxgraph.flowchart.start_2;whiteSpace=wrap;direction=south;container=0;" parent="1" vertex="1">
          <mxGeometry x="575" y="210" width="40" height="40" as="geometry" />
        </mxCell>
        <mxCell id="pWw4nJTFrqHdKG2Z5HSr-65" style="edgeStyle=orthogonalEdgeStyle;rounded=0;orthogonalLoop=1;jettySize=auto;html=1;entryX=0;entryY=0.5;entryDx=0;entryDy=0;entryPerimeter=0;" parent="1" source="pWw4nJTFrqHdKG2Z5HSr-56" target="pWw4nJTFrqHdKG2Z5HSr-64" edge="1">
          <mxGeometry relative="1" as="geometry" />
        </mxCell>
        <mxCell id="pWw4nJTFrqHdKG2Z5HSr-68" value="F" style="text;strokeColor=none;align=center;fillColor=none;html=1;verticalAlign=middle;whiteSpace=wrap;rounded=0;container=0;" parent="1" vertex="1">
          <mxGeometry x="540" y="230" width="30" height="20" as="geometry" />
        </mxCell>
        <mxCell id="pWw4nJTFrqHdKG2Z5HSr-69" value="T" style="text;strokeColor=none;align=center;fillColor=none;html=1;verticalAlign=middle;whiteSpace=wrap;rounded=0;container=0;" parent="1" vertex="1">
          <mxGeometry x="625" y="230" width="20" height="20" as="geometry" />
        </mxCell>
        <mxCell id="pWw4nJTFrqHdKG2Z5HSr-98" style="edgeStyle=orthogonalEdgeStyle;rounded=0;orthogonalLoop=1;jettySize=auto;html=1;" parent="1" source="pWw4nJTFrqHdKG2Z5HSr-70" target="pWw4nJTFrqHdKG2Z5HSr-64" edge="1">
          <mxGeometry relative="1" as="geometry">
            <mxPoint x="755" y="230" as="targetPoint" />
            <Array as="points">
              <mxPoint x="755" y="330" />
              <mxPoint x="755" y="220" />
            </Array>
          </mxGeometry>
        </mxCell>
        <mxCell id="pWw4nJTFrqHdKG2Z5HSr-70" value="7" style="strokeWidth=2;html=1;shape=mxgraph.flowchart.start_2;whiteSpace=wrap;direction=south;container=0;" parent="1" vertex="1">
          <mxGeometry x="635" y="310" width="40" height="40" as="geometry" />
        </mxCell>
        <mxCell id="pWw4nJTFrqHdKG2Z5HSr-74" value="T" style="text;strokeColor=none;align=center;fillColor=none;html=1;verticalAlign=middle;whiteSpace=wrap;rounded=0;container=0;" parent="1" vertex="1">
          <mxGeometry x="660" y="350" width="30" height="20" as="geometry" />
        </mxCell>
        <mxCell id="pWw4nJTFrqHdKG2Z5HSr-75" value="F" style="text;strokeColor=none;align=center;fillColor=none;html=1;verticalAlign=middle;whiteSpace=wrap;rounded=0;container=0;" parent="1" vertex="1">
          <mxGeometry x="570" y="430" width="30" height="20" as="geometry" />
        </mxCell>
        <mxCell id="pWw4nJTFrqHdKG2Z5HSr-77" style="edgeStyle=orthogonalEdgeStyle;rounded=0;orthogonalLoop=1;jettySize=auto;html=1;entryX=0;entryY=0.5;entryDx=0;entryDy=0;entryPerimeter=0;" parent="1" source="pWw4nJTFrqHdKG2Z5HSr-76" target="pWw4nJTFrqHdKG2Z5HSr-70" edge="1">
          <mxGeometry relative="1" as="geometry" />
        </mxCell>
        <mxCell id="pWw4nJTFrqHdKG2Z5HSr-76" value="6" style="strokeWidth=2;html=1;shape=mxgraph.flowchart.start_2;whiteSpace=wrap;direction=south;align=center;container=0;" parent="1" vertex="1">
          <mxGeometry x="635" y="250" width="40" height="40" as="geometry" />
        </mxCell>
        <mxCell id="pWw4nJTFrqHdKG2Z5HSr-78" style="edgeStyle=orthogonalEdgeStyle;rounded=0;orthogonalLoop=1;jettySize=auto;html=1;entryX=0;entryY=0.5;entryDx=0;entryDy=0;entryPerimeter=0;" parent="1" source="pWw4nJTFrqHdKG2Z5HSr-64" target="pWw4nJTFrqHdKG2Z5HSr-76" edge="1">
          <mxGeometry relative="1" as="geometry" />
        </mxCell>
        <mxCell id="pWw4nJTFrqHdKG2Z5HSr-80" value="8" style="strokeWidth=2;html=1;shape=mxgraph.flowchart.start_2;whiteSpace=wrap;direction=south;container=0;" parent="1" vertex="1">
          <mxGeometry x="635" y="370" width="40" height="40" as="geometry" />
        </mxCell>
        <mxCell id="pWw4nJTFrqHdKG2Z5HSr-81" style="edgeStyle=orthogonalEdgeStyle;rounded=0;orthogonalLoop=1;jettySize=auto;html=1;entryX=0;entryY=0.5;entryDx=0;entryDy=0;entryPerimeter=0;" parent="1" source="pWw4nJTFrqHdKG2Z5HSr-70" target="pWw4nJTFrqHdKG2Z5HSr-80" edge="1">
          <mxGeometry relative="1" as="geometry" />
        </mxCell>
        <mxCell id="pWw4nJTFrqHdKG2Z5HSr-85" value="9" style="strokeWidth=2;html=1;shape=mxgraph.flowchart.start_2;whiteSpace=wrap;direction=south;container=0;" parent="1" vertex="1">
          <mxGeometry x="635" y="430" width="40" height="40" as="geometry" />
        </mxCell>
        <mxCell id="pWw4nJTFrqHdKG2Z5HSr-86" style="edgeStyle=orthogonalEdgeStyle;rounded=0;orthogonalLoop=1;jettySize=auto;html=1;entryX=0;entryY=0.5;entryDx=0;entryDy=0;entryPerimeter=0;" parent="1" source="pWw4nJTFrqHdKG2Z5HSr-80" target="pWw4nJTFrqHdKG2Z5HSr-85" edge="1">
          <mxGeometry relative="1" as="geometry" />
        </mxCell>
        <mxCell id="pWw4nJTFrqHdKG2Z5HSr-87" value="T" style="text;strokeColor=none;align=center;fillColor=none;html=1;verticalAlign=middle;whiteSpace=wrap;rounded=0;container=0;" parent="1" vertex="1">
          <mxGeometry x="660" y="410" width="30" height="20" as="geometry" />
        </mxCell>
        <mxCell id="pWw4nJTFrqHdKG2Z5HSr-149" style="edgeStyle=orthogonalEdgeStyle;rounded=0;orthogonalLoop=1;jettySize=auto;html=1;" parent="1" source="pWw4nJTFrqHdKG2Z5HSr-89" target="pWw4nJTFrqHdKG2Z5HSr-147" edge="1">
          <mxGeometry relative="1" as="geometry">
            <Array as="points">
              <mxPoint x="520" y="490" />
            </Array>
          </mxGeometry>
        </mxCell>
        <mxCell id="pWw4nJTFrqHdKG2Z5HSr-89" value="10" style="strokeWidth=2;html=1;shape=mxgraph.flowchart.start_2;whiteSpace=wrap;direction=south;container=0;" parent="1" vertex="1">
          <mxGeometry x="570" y="470" width="40" height="40" as="geometry" />
        </mxCell>
        <mxCell id="pWw4nJTFrqHdKG2Z5HSr-90" style="edgeStyle=orthogonalEdgeStyle;rounded=0;orthogonalLoop=1;jettySize=auto;html=1;entryX=0;entryY=0.5;entryDx=0;entryDy=0;entryPerimeter=0;" parent="1" source="pWw4nJTFrqHdKG2Z5HSr-80" target="pWw4nJTFrqHdKG2Z5HSr-89" edge="1">
          <mxGeometry relative="1" as="geometry" />
        </mxCell>
        <mxCell id="pWw4nJTFrqHdKG2Z5HSr-91" style="edgeStyle=orthogonalEdgeStyle;rounded=0;orthogonalLoop=1;jettySize=auto;html=1;entryX=0.5;entryY=0;entryDx=0;entryDy=0;entryPerimeter=0;" parent="1" source="pWw4nJTFrqHdKG2Z5HSr-85" target="pWw4nJTFrqHdKG2Z5HSr-89" edge="1">
          <mxGeometry relative="1" as="geometry">
            <Array as="points">
              <mxPoint x="655" y="490" />
            </Array>
          </mxGeometry>
        </mxCell>
        <mxCell id="pWw4nJTFrqHdKG2Z5HSr-150" style="edgeStyle=orthogonalEdgeStyle;rounded=0;orthogonalLoop=1;jettySize=auto;html=1;entryX=0.659;entryY=-0.083;entryDx=0;entryDy=0;entryPerimeter=0;" parent="1" source="pWw4nJTFrqHdKG2Z5HSr-92" target="pWw4nJTFrqHdKG2Z5HSr-147" edge="1">
          <mxGeometry relative="1" as="geometry">
            <Array as="points">
              <mxPoint x="590" y="586" />
            </Array>
          </mxGeometry>
        </mxCell>
        <mxCell id="pWw4nJTFrqHdKG2Z5HSr-92" value="11" style="strokeWidth=2;html=1;shape=mxgraph.flowchart.start_2;whiteSpace=wrap;direction=south;container=0;" parent="1" vertex="1">
          <mxGeometry x="570" y="530" width="40" height="40" as="geometry" />
        </mxCell>
        <mxCell id="pWw4nJTFrqHdKG2Z5HSr-93" style="edgeStyle=orthogonalEdgeStyle;rounded=0;orthogonalLoop=1;jettySize=auto;html=1;entryX=0;entryY=0.5;entryDx=0;entryDy=0;entryPerimeter=0;" parent="1" source="pWw4nJTFrqHdKG2Z5HSr-89" target="pWw4nJTFrqHdKG2Z5HSr-92" edge="1">
          <mxGeometry relative="1" as="geometry" />
        </mxCell>
        <mxCell id="pWw4nJTFrqHdKG2Z5HSr-94" value="T" style="text;strokeColor=none;align=center;fillColor=none;html=1;verticalAlign=middle;whiteSpace=wrap;rounded=0;container=0;" parent="1" vertex="1">
          <mxGeometry x="595" y="510" width="30" height="20" as="geometry" />
        </mxCell>
        <mxCell id="pWw4nJTFrqHdKG2Z5HSr-96" value="F" style="text;strokeColor=none;align=center;fillColor=none;html=1;verticalAlign=middle;whiteSpace=wrap;rounded=0;container=0;" parent="1" vertex="1">
          <mxGeometry x="540" y="490" width="30" height="20" as="geometry" />
        </mxCell>
        <mxCell id="pWw4nJTFrqHdKG2Z5HSr-99" value="F" style="text;strokeColor=none;align=center;fillColor=none;html=1;verticalAlign=middle;whiteSpace=wrap;rounded=0;container=0;" parent="1" vertex="1">
          <mxGeometry x="680" y="310" width="30" height="20" as="geometry" />
        </mxCell>
        <mxCell id="pWw4nJTFrqHdKG2Z5HSr-140" value="" style="edgeStyle=orthogonalEdgeStyle;rounded=0;orthogonalLoop=1;jettySize=auto;html=1;" parent="1" source="pWw4nJTFrqHdKG2Z5HSr-100" target="pWw4nJTFrqHdKG2Z5HSr-138" edge="1">
          <mxGeometry relative="1" as="geometry" />
        </mxCell>
        <mxCell id="pWw4nJTFrqHdKG2Z5HSr-100" value="13" style="strokeWidth=2;html=1;shape=mxgraph.flowchart.start_2;whiteSpace=wrap;direction=south;container=0;" parent="1" vertex="1">
          <mxGeometry x="440" y="270" width="40" height="40" as="geometry" />
        </mxCell>
        <mxCell id="pWw4nJTFrqHdKG2Z5HSr-67" style="edgeStyle=orthogonalEdgeStyle;rounded=0;orthogonalLoop=1;jettySize=auto;html=1;entryX=0;entryY=0.5;entryDx=0;entryDy=0;entryPerimeter=0;" parent="1" source="pWw4nJTFrqHdKG2Z5HSr-64" target="pWw4nJTFrqHdKG2Z5HSr-100" edge="1">
          <mxGeometry relative="1" as="geometry">
            <mxPoint x="495" y="230" as="targetPoint" />
          </mxGeometry>
        </mxCell>
        <mxCell id="pWw4nJTFrqHdKG2Z5HSr-106" style="edgeStyle=orthogonalEdgeStyle;rounded=0;orthogonalLoop=1;jettySize=auto;html=1;entryX=0.5;entryY=0;entryDx=0;entryDy=0;entryPerimeter=0;" parent="1" source="pWw4nJTFrqHdKG2Z5HSr-102" target="pWw4nJTFrqHdKG2Z5HSr-104" edge="1">
          <mxGeometry relative="1" as="geometry" />
        </mxCell>
        <mxCell id="pWw4nJTFrqHdKG2Z5HSr-102" value="1" style="strokeWidth=2;html=1;shape=mxgraph.flowchart.start_2;whiteSpace=wrap;container=0;" parent="1" vertex="1">
          <mxGeometry x="80" width="40" height="40" as="geometry" />
        </mxCell>
        <mxCell id="pWw4nJTFrqHdKG2Z5HSr-109" style="edgeStyle=orthogonalEdgeStyle;rounded=0;orthogonalLoop=1;jettySize=auto;html=1;" parent="1" source="pWw4nJTFrqHdKG2Z5HSr-104" target="pWw4nJTFrqHdKG2Z5HSr-107" edge="1">
          <mxGeometry relative="1" as="geometry">
            <Array as="points">
              <mxPoint x="60" y="90" />
            </Array>
          </mxGeometry>
        </mxCell>
        <mxCell id="pWw4nJTFrqHdKG2Z5HSr-110" style="edgeStyle=orthogonalEdgeStyle;rounded=0;orthogonalLoop=1;jettySize=auto;html=1;" parent="1" source="pWw4nJTFrqHdKG2Z5HSr-104" target="pWw4nJTFrqHdKG2Z5HSr-108" edge="1">
          <mxGeometry relative="1" as="geometry">
            <Array as="points">
              <mxPoint x="140" y="90" />
            </Array>
          </mxGeometry>
        </mxCell>
        <mxCell id="pWw4nJTFrqHdKG2Z5HSr-104" value="2" style="strokeWidth=2;html=1;shape=mxgraph.flowchart.start_2;whiteSpace=wrap;container=0;" parent="1" vertex="1">
          <mxGeometry x="80" y="80" width="40" height="40" as="geometry" />
        </mxCell>
        <mxCell id="pWw4nJTFrqHdKG2Z5HSr-112" style="edgeStyle=orthogonalEdgeStyle;rounded=0;orthogonalLoop=1;jettySize=auto;html=1;entryX=0;entryY=0.5;entryDx=0;entryDy=0;entryPerimeter=0;" parent="1" source="pWw4nJTFrqHdKG2Z5HSr-107" target="pWw4nJTFrqHdKG2Z5HSr-111" edge="1">
          <mxGeometry relative="1" as="geometry" />
        </mxCell>
        <mxCell id="pWw4nJTFrqHdKG2Z5HSr-107" value="3" style="strokeWidth=2;html=1;shape=mxgraph.flowchart.start_2;whiteSpace=wrap;container=0;direction=south;" parent="1" vertex="1">
          <mxGeometry x="40" y="120" width="40" height="40" as="geometry" />
        </mxCell>
        <mxCell id="pWw4nJTFrqHdKG2Z5HSr-114" style="edgeStyle=orthogonalEdgeStyle;rounded=0;orthogonalLoop=1;jettySize=auto;html=1;entryX=0.5;entryY=0;entryDx=0;entryDy=0;entryPerimeter=0;" parent="1" source="pWw4nJTFrqHdKG2Z5HSr-108" target="pWw4nJTFrqHdKG2Z5HSr-113" edge="1">
          <mxGeometry relative="1" as="geometry" />
        </mxCell>
        <mxCell id="pWw4nJTFrqHdKG2Z5HSr-108" value="4" style="strokeWidth=2;html=1;shape=mxgraph.flowchart.start_2;whiteSpace=wrap;container=0;" parent="1" vertex="1">
          <mxGeometry x="120" y="120" width="40" height="40" as="geometry" />
        </mxCell>
        <mxCell id="pWw4nJTFrqHdKG2Z5HSr-111" value="STOP" style="strokeWidth=2;html=1;shape=mxgraph.flowchart.start_2;whiteSpace=wrap;container=0;direction=south;" parent="1" vertex="1">
          <mxGeometry x="40" y="180" width="40" height="40" as="geometry" />
        </mxCell>
        <mxCell id="pWw4nJTFrqHdKG2Z5HSr-116" style="edgeStyle=orthogonalEdgeStyle;rounded=0;orthogonalLoop=1;jettySize=auto;html=1;entryX=0.5;entryY=0;entryDx=0;entryDy=0;entryPerimeter=0;" parent="1" source="pWw4nJTFrqHdKG2Z5HSr-113" target="pWw4nJTFrqHdKG2Z5HSr-115" edge="1">
          <mxGeometry relative="1" as="geometry" />
        </mxCell>
        <mxCell id="pWw4nJTFrqHdKG2Z5HSr-134" style="edgeStyle=orthogonalEdgeStyle;rounded=0;orthogonalLoop=1;jettySize=auto;html=1;" parent="1" source="pWw4nJTFrqHdKG2Z5HSr-113" target="pWw4nJTFrqHdKG2Z5HSr-132" edge="1">
          <mxGeometry relative="1" as="geometry" />
        </mxCell>
        <mxCell id="pWw4nJTFrqHdKG2Z5HSr-113" value="5" style="strokeWidth=2;html=1;shape=mxgraph.flowchart.start_2;whiteSpace=wrap;container=0;" parent="1" vertex="1">
          <mxGeometry x="120" y="180" width="40" height="40" as="geometry" />
        </mxCell>
        <mxCell id="pWw4nJTFrqHdKG2Z5HSr-121" style="edgeStyle=orthogonalEdgeStyle;rounded=0;orthogonalLoop=1;jettySize=auto;html=1;entryX=1;entryY=0.5;entryDx=0;entryDy=0;entryPerimeter=0;" parent="1" source="pWw4nJTFrqHdKG2Z5HSr-115" target="pWw4nJTFrqHdKG2Z5HSr-113" edge="1">
          <mxGeometry relative="1" as="geometry">
            <Array as="points">
              <mxPoint x="200" y="260" />
              <mxPoint x="200" y="200" />
            </Array>
          </mxGeometry>
        </mxCell>
        <mxCell id="pWw4nJTFrqHdKG2Z5HSr-130" style="edgeStyle=orthogonalEdgeStyle;rounded=0;orthogonalLoop=1;jettySize=auto;html=1;entryX=0.5;entryY=0;entryDx=0;entryDy=0;entryPerimeter=0;" parent="1" source="pWw4nJTFrqHdKG2Z5HSr-115" target="pWw4nJTFrqHdKG2Z5HSr-118" edge="1">
          <mxGeometry relative="1" as="geometry" />
        </mxCell>
        <mxCell id="pWw4nJTFrqHdKG2Z5HSr-115" value="6" style="strokeWidth=2;html=1;shape=mxgraph.flowchart.start_2;whiteSpace=wrap;container=0;" parent="1" vertex="1">
          <mxGeometry x="120" y="240" width="40" height="40" as="geometry" />
        </mxCell>
        <mxCell id="pWw4nJTFrqHdKG2Z5HSr-125" value="" style="edgeStyle=orthogonalEdgeStyle;rounded=0;orthogonalLoop=1;jettySize=auto;html=1;" parent="1" source="pWw4nJTFrqHdKG2Z5HSr-118" target="pWw4nJTFrqHdKG2Z5HSr-123" edge="1">
          <mxGeometry relative="1" as="geometry" />
        </mxCell>
        <mxCell id="pWw4nJTFrqHdKG2Z5HSr-118" value="7" style="strokeWidth=2;html=1;shape=mxgraph.flowchart.start_2;whiteSpace=wrap;container=0;" parent="1" vertex="1">
          <mxGeometry x="120" y="300" width="40" height="40" as="geometry" />
        </mxCell>
        <mxCell id="pWw4nJTFrqHdKG2Z5HSr-123" value="STOP" style="strokeWidth=2;html=1;shape=mxgraph.flowchart.start_2;whiteSpace=wrap;container=0;direction=south;" parent="1" vertex="1">
          <mxGeometry x="120" y="360" width="40" height="40" as="geometry" />
        </mxCell>
        <mxCell id="pWw4nJTFrqHdKG2Z5HSr-136" value="" style="edgeStyle=orthogonalEdgeStyle;rounded=0;orthogonalLoop=1;jettySize=auto;html=1;" parent="1" source="pWw4nJTFrqHdKG2Z5HSr-132" target="pWw4nJTFrqHdKG2Z5HSr-135" edge="1">
          <mxGeometry relative="1" as="geometry" />
        </mxCell>
        <mxCell id="pWw4nJTFrqHdKG2Z5HSr-132" value="8" style="strokeWidth=2;html=1;shape=mxgraph.flowchart.start_2;whiteSpace=wrap;container=0;" parent="1" vertex="1">
          <mxGeometry x="70" y="260" width="40" height="40" as="geometry" />
        </mxCell>
        <mxCell id="pWw4nJTFrqHdKG2Z5HSr-135" value="STOP" style="strokeWidth=2;html=1;shape=mxgraph.flowchart.start_2;whiteSpace=wrap;container=0;direction=south;" parent="1" vertex="1">
          <mxGeometry x="70" y="320" width="40" height="40" as="geometry" />
        </mxCell>
        <mxCell id="pWw4nJTFrqHdKG2Z5HSr-137" value="STOP" style="strokeWidth=2;html=1;shape=mxgraph.flowchart.start_2;whiteSpace=wrap;container=0;direction=south;" parent="1" vertex="1">
          <mxGeometry x="810" y="100" width="40" height="40" as="geometry" />
        </mxCell>
        <mxCell id="pWw4nJTFrqHdKG2Z5HSr-138" value="STOP" style="strokeWidth=2;html=1;shape=mxgraph.flowchart.start_2;whiteSpace=wrap;container=0;direction=south;" parent="1" vertex="1">
          <mxGeometry x="440" y="330" width="40" height="40" as="geometry" />
        </mxCell>
        <mxCell id="pWw4nJTFrqHdKG2Z5HSr-142" value="STOP" style="strokeWidth=2;html=1;shape=mxgraph.flowchart.start_2;whiteSpace=wrap;container=0;direction=south;" parent="1" vertex="1">
          <mxGeometry x="775" y="160" width="40" height="40" as="geometry" />
        </mxCell>
        <mxCell id="pWw4nJTFrqHdKG2Z5HSr-152" style="edgeStyle=orthogonalEdgeStyle;rounded=0;orthogonalLoop=1;jettySize=auto;html=1;" parent="1" source="pWw4nJTFrqHdKG2Z5HSr-147" target="pWw4nJTFrqHdKG2Z5HSr-70" edge="1">
          <mxGeometry relative="1" as="geometry">
            <Array as="points">
              <mxPoint x="490" y="330" />
            </Array>
          </mxGeometry>
        </mxCell>
        <mxCell id="pWw4nJTFrqHdKG2Z5HSr-147" value="12" style="strokeWidth=2;html=1;shape=mxgraph.flowchart.start_2;whiteSpace=wrap;direction=south;container=0;" parent="1" vertex="1">
          <mxGeometry x="500" y="560" width="40" height="40" as="geometry" />
        </mxCell>
        <mxCell id="pWw4nJTFrqHdKG2Z5HSr-154" value="T" style="text;strokeColor=none;align=center;fillColor=none;html=1;verticalAlign=middle;whiteSpace=wrap;rounded=0;container=0;" parent="1" vertex="1">
          <mxGeometry x="150" y="280" width="20" height="20" as="geometry" />
        </mxCell>
        <mxCell id="pWw4nJTFrqHdKG2Z5HSr-155" value="F" style="text;strokeColor=none;align=center;fillColor=none;html=1;verticalAlign=middle;whiteSpace=wrap;rounded=0;container=0;" parent="1" vertex="1">
          <mxGeometry x="150" y="240" width="30" height="20" as="geometry" />
        </mxCell>
        <mxCell id="pWw4nJTFrqHdKG2Z5HSr-156" value="isNxN" style="text;strokeColor=none;align=center;fillColor=none;verticalAlign=middle;whiteSpace=wrap;rounded=0;labelBackgroundColor=#94A8D0;fontSize=21;fontColor=#f3f1f1;" parent="1" vertex="1">
          <mxGeometry x="30" y="-80" width="140" height="45" as="geometry" />
        </mxCell>
        <mxCell id="pWw4nJTFrqHdKG2Z5HSr-157" value="printDiagonals" style="text;strokeColor=none;align=center;fillColor=none;verticalAlign=middle;whiteSpace=wrap;rounded=0;labelBackgroundColor=#94A8D0;fontSize=21;fontColor=#f3f1f1;" parent="1" vertex="1">
          <mxGeometry x="590" y="-80" width="190" height="50" as="geometry" />
        </mxCell>
      </root>
    </mxGraphModel>
  </diagram>
  <diagram id="Bpe_Ww-rOf8-dxu33_3t" name="Page-2">
    <mxGraphModel dx="2295" dy="2156" grid="1" gridSize="10" guides="1" tooltips="1" connect="1" arrows="1" fold="1" page="1" pageScale="1" pageWidth="850" pageHeight="1100" math="0" shadow="0">
      <root>
        <mxCell id="0" />
        <mxCell id="1" parent="0" />
        <mxCell id="ywhVKemGmg4cdezuILgi-1" value="1" style="strokeWidth=2;html=1;shape=mxgraph.flowchart.start_2;whiteSpace=wrap;container=0;" vertex="1" parent="1">
          <mxGeometry x="675" y="-40" width="40" height="40" as="geometry" />
        </mxCell>
        <mxCell id="ywhVKemGmg4cdezuILgi-2" style="edgeStyle=orthogonalEdgeStyle;rounded=0;orthogonalLoop=1;jettySize=auto;html=1;" edge="1" parent="1" source="ywhVKemGmg4cdezuILgi-3" target="ywhVKemGmg4cdezuILgi-19">
          <mxGeometry relative="1" as="geometry">
            <Array as="points">
              <mxPoint x="760" y="90" />
            </Array>
          </mxGeometry>
        </mxCell>
        <mxCell id="ywhVKemGmg4cdezuILgi-3" value="2" style="strokeWidth=2;html=1;shape=mxgraph.flowchart.start_2;whiteSpace=wrap;container=0;" vertex="1" parent="1">
          <mxGeometry x="675" y="70" width="40" height="40" as="geometry" />
        </mxCell>
        <mxCell id="ywhVKemGmg4cdezuILgi-4" style="edgeStyle=orthogonalEdgeStyle;rounded=0;orthogonalLoop=1;jettySize=auto;html=1;entryX=0.5;entryY=0;entryDx=0;entryDy=0;entryPerimeter=0;" edge="1" parent="1" source="ywhVKemGmg4cdezuILgi-1" target="ywhVKemGmg4cdezuILgi-3">
          <mxGeometry relative="1" as="geometry" />
        </mxCell>
        <mxCell id="ywhVKemGmg4cdezuILgi-5" value="3" style="strokeWidth=2;html=1;shape=mxgraph.flowchart.start_2;whiteSpace=wrap;container=0;" vertex="1" parent="1">
          <mxGeometry x="615" y="110" width="40" height="40" as="geometry" />
        </mxCell>
        <mxCell id="ywhVKemGmg4cdezuILgi-6" style="edgeStyle=orthogonalEdgeStyle;rounded=0;orthogonalLoop=1;jettySize=auto;html=1;entryX=0.5;entryY=0;entryDx=0;entryDy=0;entryPerimeter=0;" edge="1" parent="1" source="ywhVKemGmg4cdezuILgi-3" target="ywhVKemGmg4cdezuILgi-5">
          <mxGeometry relative="1" as="geometry" />
        </mxCell>
        <mxCell id="ywhVKemGmg4cdezuILgi-7" value="T" style="text;strokeColor=none;align=center;fillColor=none;html=1;verticalAlign=middle;whiteSpace=wrap;rounded=0;container=0;" vertex="1" parent="1">
          <mxGeometry x="655" y="90" width="35" height="20" as="geometry" />
        </mxCell>
        <mxCell id="ywhVKemGmg4cdezuILgi-8" value="F" style="text;strokeColor=none;align=center;fillColor=none;html=1;verticalAlign=middle;whiteSpace=wrap;rounded=0;container=0;" vertex="1" parent="1">
          <mxGeometry x="705" y="87.5" width="45" height="25" as="geometry" />
        </mxCell>
        <mxCell id="ywhVKemGmg4cdezuILgi-9" value="T" style="text;strokeColor=none;align=center;fillColor=none;html=1;verticalAlign=middle;whiteSpace=wrap;rounded=0;container=0;" vertex="1" parent="1">
          <mxGeometry x="575" y="130" width="20" height="20" as="geometry" />
        </mxCell>
        <mxCell id="ywhVKemGmg4cdezuILgi-10" value="4" style="strokeWidth=2;html=1;shape=mxgraph.flowchart.start_2;whiteSpace=wrap;direction=south;container=0;" vertex="1" parent="1">
          <mxGeometry x="575" y="150" width="40" height="40" as="geometry" />
        </mxCell>
        <mxCell id="ywhVKemGmg4cdezuILgi-11" value="" style="edgeStyle=orthogonalEdgeStyle;rounded=0;orthogonalLoop=1;jettySize=auto;html=1;" edge="1" parent="1" source="ywhVKemGmg4cdezuILgi-12" target="ywhVKemGmg4cdezuILgi-53">
          <mxGeometry relative="1" as="geometry" />
        </mxCell>
        <mxCell id="ywhVKemGmg4cdezuILgi-12" value="14" style="strokeWidth=2;html=1;shape=mxgraph.flowchart.start_2;whiteSpace=wrap;container=0;" vertex="1" parent="1">
          <mxGeometry x="655" y="160" width="40" height="40" as="geometry" />
        </mxCell>
        <mxCell id="ywhVKemGmg4cdezuILgi-14" style="edgeStyle=orthogonalEdgeStyle;rounded=0;orthogonalLoop=1;jettySize=auto;html=1;entryX=0.5;entryY=0;entryDx=0;entryDy=0;entryPerimeter=0;" edge="1" parent="1" target="ywhVKemGmg4cdezuILgi-17">
          <mxGeometry relative="1" as="geometry">
            <mxPoint x="675" y="90" as="sourcePoint" />
          </mxGeometry>
        </mxCell>
        <mxCell id="ywhVKemGmg4cdezuILgi-15" style="edgeStyle=orthogonalEdgeStyle;rounded=0;orthogonalLoop=1;jettySize=auto;html=1;entryX=0;entryY=0.5;entryDx=0;entryDy=0;entryPerimeter=0;" edge="1" parent="1" source="ywhVKemGmg4cdezuILgi-17" target="ywhVKemGmg4cdezuILgi-10">
          <mxGeometry relative="1" as="geometry">
            <Array as="points">
              <mxPoint x="595" y="130" />
            </Array>
          </mxGeometry>
        </mxCell>
        <mxCell id="ywhVKemGmg4cdezuILgi-16" style="edgeStyle=orthogonalEdgeStyle;rounded=0;orthogonalLoop=1;jettySize=auto;html=1;entryX=0.5;entryY=0;entryDx=0;entryDy=0;entryPerimeter=0;" edge="1" parent="1" source="ywhVKemGmg4cdezuILgi-17" target="ywhVKemGmg4cdezuILgi-12">
          <mxGeometry relative="1" as="geometry">
            <Array as="points">
              <mxPoint x="675" y="130" />
            </Array>
          </mxGeometry>
        </mxCell>
        <mxCell id="ywhVKemGmg4cdezuILgi-17" value="3" style="strokeWidth=2;html=1;shape=mxgraph.flowchart.start_2;whiteSpace=wrap;container=0;" vertex="1" parent="1">
          <mxGeometry x="615" y="110" width="40" height="40" as="geometry" />
        </mxCell>
        <mxCell id="ywhVKemGmg4cdezuILgi-18" value="" style="edgeStyle=orthogonalEdgeStyle;rounded=0;orthogonalLoop=1;jettySize=auto;html=1;" edge="1" parent="1" source="ywhVKemGmg4cdezuILgi-19" target="ywhVKemGmg4cdezuILgi-51">
          <mxGeometry relative="1" as="geometry" />
        </mxCell>
        <mxCell id="ywhVKemGmg4cdezuILgi-19" value="15" style="strokeWidth=2;html=1;shape=mxgraph.flowchart.start_2;whiteSpace=wrap;container=0;" vertex="1" parent="1">
          <mxGeometry x="735" y="100" width="40" height="40" as="geometry" />
        </mxCell>
        <mxCell id="ywhVKemGmg4cdezuILgi-21" value="F" style="text;strokeColor=none;align=center;fillColor=none;html=1;verticalAlign=middle;whiteSpace=wrap;rounded=0;container=0;" vertex="1" parent="1">
          <mxGeometry x="675" y="130" width="30" height="20" as="geometry" />
        </mxCell>
        <mxCell id="MdHjD5s6Hnt4Rs3PEp5I-11" style="edgeStyle=orthogonalEdgeStyle;rounded=0;orthogonalLoop=1;jettySize=auto;html=1;" edge="1" parent="1" source="ywhVKemGmg4cdezuILgi-22" target="ywhVKemGmg4cdezuILgi-31">
          <mxGeometry relative="1" as="geometry">
            <Array as="points">
              <mxPoint x="595" y="290" />
            </Array>
          </mxGeometry>
        </mxCell>
        <mxCell id="ywhVKemGmg4cdezuILgi-22" value="5" style="strokeWidth=2;html=1;shape=mxgraph.flowchart.start_2;whiteSpace=wrap;direction=south;container=0;" vertex="1" parent="1">
          <mxGeometry x="575" y="235" width="40" height="40" as="geometry" />
        </mxCell>
        <mxCell id="ywhVKemGmg4cdezuILgi-23" style="edgeStyle=orthogonalEdgeStyle;rounded=0;orthogonalLoop=1;jettySize=auto;html=1;entryX=0;entryY=0.5;entryDx=0;entryDy=0;entryPerimeter=0;" edge="1" parent="1" source="ywhVKemGmg4cdezuILgi-10" target="ywhVKemGmg4cdezuILgi-22">
          <mxGeometry relative="1" as="geometry" />
        </mxCell>
        <mxCell id="ywhVKemGmg4cdezuILgi-24" value="F" style="text;strokeColor=none;align=center;fillColor=none;html=1;verticalAlign=middle;whiteSpace=wrap;rounded=0;container=0;" vertex="1" parent="1">
          <mxGeometry x="540" y="230" width="30" height="20" as="geometry" />
        </mxCell>
        <mxCell id="ywhVKemGmg4cdezuILgi-25" value="T" style="text;strokeColor=none;align=center;fillColor=none;html=1;verticalAlign=middle;whiteSpace=wrap;rounded=0;container=0;" vertex="1" parent="1">
          <mxGeometry x="610" y="270" width="20" height="20" as="geometry" />
        </mxCell>
        <mxCell id="MdHjD5s6Hnt4Rs3PEp5I-10" style="edgeStyle=orthogonalEdgeStyle;rounded=0;orthogonalLoop=1;jettySize=auto;html=1;entryX=0.145;entryY=0.145;entryDx=0;entryDy=0;entryPerimeter=0;" edge="1" parent="1" source="ywhVKemGmg4cdezuILgi-27" target="ywhVKemGmg4cdezuILgi-22">
          <mxGeometry relative="1" as="geometry">
            <Array as="points">
              <mxPoint x="780" y="350" />
              <mxPoint x="780" y="241" />
            </Array>
          </mxGeometry>
        </mxCell>
        <mxCell id="ywhVKemGmg4cdezuILgi-27" value="7" style="strokeWidth=2;html=1;shape=mxgraph.flowchart.start_2;whiteSpace=wrap;direction=south;container=0;" vertex="1" parent="1">
          <mxGeometry x="635" y="330" width="40" height="40" as="geometry" />
        </mxCell>
        <mxCell id="ywhVKemGmg4cdezuILgi-28" value="T" style="text;strokeColor=none;align=center;fillColor=none;html=1;verticalAlign=middle;whiteSpace=wrap;rounded=0;container=0;" vertex="1" parent="1">
          <mxGeometry x="660" y="365" width="30" height="20" as="geometry" />
        </mxCell>
        <mxCell id="ywhVKemGmg4cdezuILgi-29" value="F" style="text;strokeColor=none;align=center;fillColor=none;html=1;verticalAlign=middle;whiteSpace=wrap;rounded=0;container=0;" vertex="1" parent="1">
          <mxGeometry x="615" y="440" width="30" height="20" as="geometry" />
        </mxCell>
        <mxCell id="ywhVKemGmg4cdezuILgi-30" style="edgeStyle=orthogonalEdgeStyle;rounded=0;orthogonalLoop=1;jettySize=auto;html=1;entryX=0;entryY=0.5;entryDx=0;entryDy=0;entryPerimeter=0;" edge="1" parent="1" source="ywhVKemGmg4cdezuILgi-31" target="ywhVKemGmg4cdezuILgi-27">
          <mxGeometry relative="1" as="geometry" />
        </mxCell>
        <mxCell id="ywhVKemGmg4cdezuILgi-31" value="6" style="strokeWidth=2;html=1;shape=mxgraph.flowchart.start_2;whiteSpace=wrap;direction=south;align=center;container=0;" vertex="1" parent="1">
          <mxGeometry x="635" y="260" width="40" height="40" as="geometry" />
        </mxCell>
        <mxCell id="ywhVKemGmg4cdezuILgi-33" value="8" style="strokeWidth=2;html=1;shape=mxgraph.flowchart.start_2;whiteSpace=wrap;direction=south;container=0;" vertex="1" parent="1">
          <mxGeometry x="635" y="420" width="40" height="40" as="geometry" />
        </mxCell>
        <mxCell id="ywhVKemGmg4cdezuILgi-34" style="edgeStyle=orthogonalEdgeStyle;rounded=0;orthogonalLoop=1;jettySize=auto;html=1;entryX=0;entryY=0.5;entryDx=0;entryDy=0;entryPerimeter=0;" edge="1" parent="1" source="ywhVKemGmg4cdezuILgi-27" target="ywhVKemGmg4cdezuILgi-33">
          <mxGeometry relative="1" as="geometry" />
        </mxCell>
        <mxCell id="ywhVKemGmg4cdezuILgi-35" value="9" style="strokeWidth=2;html=1;shape=mxgraph.flowchart.start_2;whiteSpace=wrap;direction=south;container=0;" vertex="1" parent="1">
          <mxGeometry x="635" y="515" width="40" height="40" as="geometry" />
        </mxCell>
        <mxCell id="ywhVKemGmg4cdezuILgi-36" style="edgeStyle=orthogonalEdgeStyle;rounded=0;orthogonalLoop=1;jettySize=auto;html=1;entryX=0;entryY=0.5;entryDx=0;entryDy=0;entryPerimeter=0;" edge="1" parent="1" source="ywhVKemGmg4cdezuILgi-33" target="ywhVKemGmg4cdezuILgi-35">
          <mxGeometry relative="1" as="geometry" />
        </mxCell>
        <mxCell id="ywhVKemGmg4cdezuILgi-37" value="T" style="text;strokeColor=none;align=center;fillColor=none;html=1;verticalAlign=middle;whiteSpace=wrap;rounded=0;container=0;" vertex="1" parent="1">
          <mxGeometry x="655" y="460" width="30" height="20" as="geometry" />
        </mxCell>
        <mxCell id="ywhVKemGmg4cdezuILgi-39" value="10" style="strokeWidth=2;html=1;shape=mxgraph.flowchart.start_2;whiteSpace=wrap;direction=south;container=0;" vertex="1" parent="1">
          <mxGeometry x="570" y="490" width="40" height="40" as="geometry" />
        </mxCell>
        <mxCell id="ywhVKemGmg4cdezuILgi-40" style="edgeStyle=orthogonalEdgeStyle;rounded=0;orthogonalLoop=1;jettySize=auto;html=1;entryX=0;entryY=0.5;entryDx=0;entryDy=0;entryPerimeter=0;" edge="1" parent="1" source="ywhVKemGmg4cdezuILgi-33" target="ywhVKemGmg4cdezuILgi-39">
          <mxGeometry relative="1" as="geometry" />
        </mxCell>
        <mxCell id="ywhVKemGmg4cdezuILgi-41" style="edgeStyle=orthogonalEdgeStyle;rounded=0;orthogonalLoop=1;jettySize=auto;html=1;entryX=0.5;entryY=0;entryDx=0;entryDy=0;entryPerimeter=0;" edge="1" parent="1" source="ywhVKemGmg4cdezuILgi-35" target="ywhVKemGmg4cdezuILgi-39">
          <mxGeometry relative="1" as="geometry">
            <Array as="points">
              <mxPoint x="655" y="510" />
            </Array>
          </mxGeometry>
        </mxCell>
        <mxCell id="ywhVKemGmg4cdezuILgi-43" value="11" style="strokeWidth=2;html=1;shape=mxgraph.flowchart.start_2;whiteSpace=wrap;direction=south;container=0;" vertex="1" parent="1">
          <mxGeometry x="570" y="586" width="40" height="40" as="geometry" />
        </mxCell>
        <mxCell id="ywhVKemGmg4cdezuILgi-47" value="F" style="text;strokeColor=none;align=center;fillColor=none;html=1;verticalAlign=middle;whiteSpace=wrap;rounded=0;container=0;" vertex="1" parent="1">
          <mxGeometry x="670" y="330" width="30" height="20" as="geometry" />
        </mxCell>
        <mxCell id="ywhVKemGmg4cdezuILgi-48" value="" style="edgeStyle=orthogonalEdgeStyle;rounded=0;orthogonalLoop=1;jettySize=auto;html=1;" edge="1" parent="1" source="ywhVKemGmg4cdezuILgi-49" target="ywhVKemGmg4cdezuILgi-52">
          <mxGeometry relative="1" as="geometry" />
        </mxCell>
        <mxCell id="ywhVKemGmg4cdezuILgi-49" value="13" style="strokeWidth=2;html=1;shape=mxgraph.flowchart.start_2;whiteSpace=wrap;direction=south;container=0;" vertex="1" parent="1">
          <mxGeometry x="440" y="275" width="40" height="40" as="geometry" />
        </mxCell>
        <mxCell id="ywhVKemGmg4cdezuILgi-51" value="STOP" style="strokeWidth=2;html=1;shape=mxgraph.flowchart.start_2;whiteSpace=wrap;container=0;direction=south;" vertex="1" parent="1">
          <mxGeometry x="810" y="100" width="40" height="40" as="geometry" />
        </mxCell>
        <mxCell id="ywhVKemGmg4cdezuILgi-52" value="STOP" style="strokeWidth=2;html=1;shape=mxgraph.flowchart.start_2;whiteSpace=wrap;container=0;direction=south;" vertex="1" parent="1">
          <mxGeometry x="440" y="385" width="40" height="40" as="geometry" />
        </mxCell>
        <mxCell id="ywhVKemGmg4cdezuILgi-53" value="STOP" style="strokeWidth=2;html=1;shape=mxgraph.flowchart.start_2;whiteSpace=wrap;container=0;direction=south;" vertex="1" parent="1">
          <mxGeometry x="775" y="160" width="40" height="40" as="geometry" />
        </mxCell>
        <mxCell id="ywhVKemGmg4cdezuILgi-54" style="edgeStyle=orthogonalEdgeStyle;rounded=0;orthogonalLoop=1;jettySize=auto;html=1;" edge="1" parent="1" source="ywhVKemGmg4cdezuILgi-55" target="ywhVKemGmg4cdezuILgi-27">
          <mxGeometry relative="1" as="geometry">
            <Array as="points">
              <mxPoint x="490" y="330" />
            </Array>
          </mxGeometry>
        </mxCell>
        <mxCell id="ywhVKemGmg4cdezuILgi-55" value="12" style="strokeWidth=2;html=1;shape=mxgraph.flowchart.start_2;whiteSpace=wrap;direction=south;container=0;" vertex="1" parent="1">
          <mxGeometry x="500" y="680" width="40" height="40" as="geometry" />
        </mxCell>
        <mxCell id="ywhVKemGmg4cdezuILgi-56" value="a" style="text;strokeColor=none;align=center;fillColor=none;html=1;verticalAlign=middle;whiteSpace=wrap;rounded=0;" vertex="1" parent="1">
          <mxGeometry x="695" y="30" width="10" height="10" as="geometry" />
        </mxCell>
        <mxCell id="ywhVKemGmg4cdezuILgi-57" value="b" style="text;strokeColor=none;align=center;fillColor=none;html=1;verticalAlign=middle;whiteSpace=wrap;rounded=0;" vertex="1" parent="1">
          <mxGeometry x="725" y="77.5" width="10" height="10" as="geometry" />
        </mxCell>
        <mxCell id="ywhVKemGmg4cdezuILgi-59" value="c" style="text;strokeColor=none;align=center;fillColor=none;html=1;verticalAlign=middle;whiteSpace=wrap;rounded=0;" vertex="1" parent="1">
          <mxGeometry x="790" y="110" width="10" height="10" as="geometry" />
        </mxCell>
        <mxCell id="ywhVKemGmg4cdezuILgi-60" value="d" style="text;strokeColor=none;align=center;fillColor=none;html=1;verticalAlign=middle;whiteSpace=wrap;rounded=0;" vertex="1" parent="1">
          <mxGeometry x="650" y="77.5" width="10" height="10" as="geometry" />
        </mxCell>
        <mxCell id="ywhVKemGmg4cdezuILgi-61" value="e" style="text;strokeColor=none;align=center;fillColor=none;html=1;verticalAlign=middle;whiteSpace=wrap;rounded=0;" vertex="1" parent="1">
          <mxGeometry x="665" y="135" width="10" height="10" as="geometry" />
        </mxCell>
        <mxCell id="ywhVKemGmg4cdezuILgi-62" value="g" style="text;strokeColor=none;align=center;fillColor=none;html=1;verticalAlign=middle;whiteSpace=wrap;rounded=0;" vertex="1" parent="1">
          <mxGeometry x="600" y="120" width="10" height="10" as="geometry" />
        </mxCell>
        <mxCell id="ywhVKemGmg4cdezuILgi-63" value="h" style="text;strokeColor=none;align=center;fillColor=none;html=1;verticalAlign=middle;whiteSpace=wrap;rounded=0;" vertex="1" parent="1">
          <mxGeometry x="580" y="200" width="10" height="10" as="geometry" />
        </mxCell>
        <mxCell id="ywhVKemGmg4cdezuILgi-65" value="j" style="text;strokeColor=none;align=center;fillColor=none;html=1;verticalAlign=middle;whiteSpace=wrap;rounded=0;" vertex="1" parent="1">
          <mxGeometry x="450" y="320" width="10" height="10" as="geometry" />
        </mxCell>
        <mxCell id="ywhVKemGmg4cdezuILgi-70" value="l" style="text;strokeColor=none;align=center;fillColor=none;html=1;verticalAlign=middle;whiteSpace=wrap;rounded=0;" vertex="1" parent="1">
          <mxGeometry x="660" y="305" width="10" height="10" as="geometry" />
        </mxCell>
        <mxCell id="ywhVKemGmg4cdezuILgi-71" value="m" style="text;strokeColor=none;align=center;fillColor=none;html=1;verticalAlign=middle;whiteSpace=wrap;rounded=0;" vertex="1" parent="1">
          <mxGeometry x="635" y="375" width="10" height="10" as="geometry" />
        </mxCell>
        <mxCell id="ywhVKemGmg4cdezuILgi-72" value="n" style="text;strokeColor=none;align=center;fillColor=none;html=1;verticalAlign=middle;whiteSpace=wrap;rounded=0;" vertex="1" parent="1">
          <mxGeometry x="595" y="425" width="10" height="10" as="geometry" />
        </mxCell>
        <mxCell id="ywhVKemGmg4cdezuILgi-74" value="p" style="text;strokeColor=none;align=center;fillColor=none;html=1;verticalAlign=middle;whiteSpace=wrap;rounded=0;" vertex="1" parent="1">
          <mxGeometry x="480" y="470" width="10" height="10" as="geometry" />
        </mxCell>
        <mxCell id="ywhVKemGmg4cdezuILgi-76" value="q" style="text;strokeColor=none;align=center;fillColor=none;html=1;verticalAlign=middle;whiteSpace=wrap;rounded=0;" vertex="1" parent="1">
          <mxGeometry x="640" y="460" width="10" height="10" as="geometry" />
        </mxCell>
        <mxCell id="ywhVKemGmg4cdezuILgi-77" value="r" style="text;strokeColor=none;align=center;fillColor=none;html=1;verticalAlign=middle;whiteSpace=wrap;rounded=0;" vertex="1" parent="1">
          <mxGeometry x="640" y="495" width="10" height="10" as="geometry" />
        </mxCell>
        <mxCell id="ywhVKemGmg4cdezuILgi-81" value="v" style="text;strokeColor=none;align=center;fillColor=none;html=1;verticalAlign=middle;whiteSpace=wrap;rounded=0;" vertex="1" parent="1">
          <mxGeometry x="790" y="310" width="10" height="10" as="geometry" />
        </mxCell>
        <mxCell id="MdHjD5s6Hnt4Rs3PEp5I-5" value="" style="group" vertex="1" connectable="0" parent="1">
          <mxGeometry x="470" y="235" width="10" height="10" as="geometry" />
        </mxCell>
        <mxCell id="ywhVKemGmg4cdezuILgi-50" style="edgeStyle=orthogonalEdgeStyle;rounded=0;orthogonalLoop=1;jettySize=auto;html=1;entryX=0;entryY=0.5;entryDx=0;entryDy=0;entryPerimeter=0;" edge="1" parent="MdHjD5s6Hnt4Rs3PEp5I-5" source="ywhVKemGmg4cdezuILgi-22" target="ywhVKemGmg4cdezuILgi-49">
          <mxGeometry relative="1" as="geometry">
            <mxPoint x="25" y="-5" as="targetPoint" />
          </mxGeometry>
        </mxCell>
        <mxCell id="ywhVKemGmg4cdezuILgi-64" value="i" style="text;strokeColor=none;align=center;fillColor=none;html=1;verticalAlign=middle;whiteSpace=wrap;rounded=0;" vertex="1" parent="MdHjD5s6Hnt4Rs3PEp5I-5">
          <mxGeometry width="10" height="10" as="geometry" />
        </mxCell>
        <mxCell id="MdHjD5s6Hnt4Rs3PEp5I-6" value="" style="group" vertex="1" connectable="0" parent="1">
          <mxGeometry x="575" y="586" width="15" height="54" as="geometry" />
        </mxCell>
        <mxCell id="ywhVKemGmg4cdezuILgi-42" style="edgeStyle=orthogonalEdgeStyle;rounded=0;orthogonalLoop=1;jettySize=auto;html=1;entryX=0.659;entryY=-0.083;entryDx=0;entryDy=0;entryPerimeter=0;" edge="1" parent="MdHjD5s6Hnt4Rs3PEp5I-6" source="ywhVKemGmg4cdezuILgi-43" target="ywhVKemGmg4cdezuILgi-55">
          <mxGeometry relative="1" as="geometry">
            <Array as="points">
              <mxPoint x="15" />
            </Array>
          </mxGeometry>
        </mxCell>
        <mxCell id="ywhVKemGmg4cdezuILgi-79" value="u" style="text;strokeColor=none;align=center;fillColor=none;html=1;verticalAlign=middle;whiteSpace=wrap;rounded=0;" vertex="1" parent="MdHjD5s6Hnt4Rs3PEp5I-6">
          <mxGeometry y="44" width="10" height="10" as="geometry" />
        </mxCell>
        <mxCell id="MdHjD5s6Hnt4Rs3PEp5I-7" value="" style="group" vertex="1" connectable="0" parent="1">
          <mxGeometry x="525" y="490" width="50" height="45" as="geometry" />
        </mxCell>
        <mxCell id="MdHjD5s6Hnt4Rs3PEp5I-2" style="edgeStyle=orthogonalEdgeStyle;rounded=0;orthogonalLoop=1;jettySize=auto;html=1;" edge="1" parent="MdHjD5s6Hnt4Rs3PEp5I-7" source="ywhVKemGmg4cdezuILgi-39" target="ywhVKemGmg4cdezuILgi-55">
          <mxGeometry relative="1" as="geometry" />
        </mxCell>
        <mxCell id="ywhVKemGmg4cdezuILgi-46" value="F" style="text;strokeColor=none;align=center;fillColor=none;html=1;verticalAlign=middle;whiteSpace=wrap;rounded=0;container=0;" vertex="1" parent="MdHjD5s6Hnt4Rs3PEp5I-7">
          <mxGeometry x="20" width="30" height="20" as="geometry" />
        </mxCell>
        <mxCell id="ywhVKemGmg4cdezuILgi-73" value="o" style="text;strokeColor=none;align=center;fillColor=none;html=1;verticalAlign=middle;whiteSpace=wrap;rounded=0;" vertex="1" parent="MdHjD5s6Hnt4Rs3PEp5I-7">
          <mxGeometry y="35" width="10" height="10" as="geometry" />
        </mxCell>
        <mxCell id="MdHjD5s6Hnt4Rs3PEp5I-8" value="" style="group" vertex="1" connectable="0" parent="1">
          <mxGeometry x="580" y="515" width="50" height="25" as="geometry" />
        </mxCell>
        <mxCell id="ywhVKemGmg4cdezuILgi-44" style="edgeStyle=orthogonalEdgeStyle;rounded=0;orthogonalLoop=1;jettySize=auto;html=1;entryX=0;entryY=0.5;entryDx=0;entryDy=0;entryPerimeter=0;" edge="1" parent="MdHjD5s6Hnt4Rs3PEp5I-8" source="ywhVKemGmg4cdezuILgi-39" target="ywhVKemGmg4cdezuILgi-43">
          <mxGeometry relative="1" as="geometry" />
        </mxCell>
        <mxCell id="ywhVKemGmg4cdezuILgi-45" value="T" style="text;strokeColor=none;align=center;fillColor=none;html=1;verticalAlign=middle;whiteSpace=wrap;rounded=0;container=0;" vertex="1" parent="MdHjD5s6Hnt4Rs3PEp5I-8">
          <mxGeometry x="20" width="30" height="20" as="geometry" />
        </mxCell>
        <mxCell id="ywhVKemGmg4cdezuILgi-78" value="s" style="text;strokeColor=none;align=center;fillColor=none;html=1;verticalAlign=middle;whiteSpace=wrap;rounded=0;" vertex="1" parent="MdHjD5s6Hnt4Rs3PEp5I-8">
          <mxGeometry y="15" width="10" height="10" as="geometry" />
        </mxCell>
        <mxCell id="Rfup51Py_xgws1h3hqWI-1" value="x" style="text;strokeColor=none;align=center;fillColor=none;html=1;verticalAlign=middle;whiteSpace=wrap;rounded=0;" vertex="1" parent="1">
          <mxGeometry x="575" y="280" width="20" as="geometry" />
        </mxCell>
        <mxCell id="J0khkrDKlpiMjBsqNoxN-2" value="z" style="text;strokeColor=none;align=center;fillColor=none;html=1;verticalAlign=middle;whiteSpace=wrap;rounded=0;" vertex="1" parent="1">
          <mxGeometry x="735" y="165" width="10" height="10" as="geometry" />
        </mxCell>
      </root>
    </mxGraphModel>
  </diagram>
  <diagram id="QxJwZ5WlLPpTp6vzIs3z" name="Page-3">
    <mxGraphModel dx="1262" dy="1681" grid="1" gridSize="10" guides="1" tooltips="1" connect="1" arrows="1" fold="1" page="1" pageScale="1" pageWidth="850" pageHeight="1100" math="0" shadow="0">
      <root>
        <mxCell id="0" />
        <mxCell id="1" parent="0" />
        <mxCell id="I34_Xlb9d7zJ8clCrRhX-1" style="edgeStyle=orthogonalEdgeStyle;rounded=0;orthogonalLoop=1;jettySize=auto;html=1;entryX=0.5;entryY=0;entryDx=0;entryDy=0;entryPerimeter=0;" edge="1" parent="1" source="I34_Xlb9d7zJ8clCrRhX-2" target="I34_Xlb9d7zJ8clCrRhX-5">
          <mxGeometry relative="1" as="geometry" />
        </mxCell>
        <mxCell id="I34_Xlb9d7zJ8clCrRhX-2" value="1" style="strokeWidth=2;html=1;shape=mxgraph.flowchart.start_2;whiteSpace=wrap;container=0;" vertex="1" parent="1">
          <mxGeometry x="80" width="40" height="40" as="geometry" />
        </mxCell>
        <mxCell id="I34_Xlb9d7zJ8clCrRhX-3" style="edgeStyle=orthogonalEdgeStyle;rounded=0;orthogonalLoop=1;jettySize=auto;html=1;" edge="1" parent="1" source="I34_Xlb9d7zJ8clCrRhX-5" target="I34_Xlb9d7zJ8clCrRhX-7">
          <mxGeometry relative="1" as="geometry">
            <Array as="points">
              <mxPoint x="30" y="90" />
            </Array>
          </mxGeometry>
        </mxCell>
        <mxCell id="I34_Xlb9d7zJ8clCrRhX-4" style="edgeStyle=orthogonalEdgeStyle;rounded=0;orthogonalLoop=1;jettySize=auto;html=1;" edge="1" parent="1" source="I34_Xlb9d7zJ8clCrRhX-5" target="I34_Xlb9d7zJ8clCrRhX-9">
          <mxGeometry relative="1" as="geometry">
            <Array as="points">
              <mxPoint x="140" y="90" />
            </Array>
          </mxGeometry>
        </mxCell>
        <mxCell id="I34_Xlb9d7zJ8clCrRhX-5" value="2" style="strokeWidth=2;html=1;shape=mxgraph.flowchart.start_2;whiteSpace=wrap;container=0;" vertex="1" parent="1">
          <mxGeometry x="80" y="80" width="40" height="40" as="geometry" />
        </mxCell>
        <mxCell id="I34_Xlb9d7zJ8clCrRhX-6" style="edgeStyle=orthogonalEdgeStyle;rounded=0;orthogonalLoop=1;jettySize=auto;html=1;entryX=0;entryY=0.5;entryDx=0;entryDy=0;entryPerimeter=0;" edge="1" parent="1" source="I34_Xlb9d7zJ8clCrRhX-7" target="I34_Xlb9d7zJ8clCrRhX-10">
          <mxGeometry relative="1" as="geometry" />
        </mxCell>
        <mxCell id="I34_Xlb9d7zJ8clCrRhX-7" value="3" style="strokeWidth=2;html=1;shape=mxgraph.flowchart.start_2;whiteSpace=wrap;container=0;direction=north;" vertex="1" parent="1">
          <mxGeometry x="10" y="120" width="40" height="40" as="geometry" />
        </mxCell>
        <mxCell id="I34_Xlb9d7zJ8clCrRhX-8" style="edgeStyle=orthogonalEdgeStyle;rounded=0;orthogonalLoop=1;jettySize=auto;html=1;entryX=0.5;entryY=0;entryDx=0;entryDy=0;entryPerimeter=0;" edge="1" parent="1" source="I34_Xlb9d7zJ8clCrRhX-9" target="I34_Xlb9d7zJ8clCrRhX-13">
          <mxGeometry relative="1" as="geometry" />
        </mxCell>
        <mxCell id="I34_Xlb9d7zJ8clCrRhX-9" value="4" style="strokeWidth=2;html=1;shape=mxgraph.flowchart.start_2;whiteSpace=wrap;container=0;" vertex="1" parent="1">
          <mxGeometry x="120" y="120" width="40" height="40" as="geometry" />
        </mxCell>
        <mxCell id="I34_Xlb9d7zJ8clCrRhX-10" value="STOP" style="strokeWidth=2;html=1;shape=mxgraph.flowchart.start_2;whiteSpace=wrap;container=0;direction=south;" vertex="1" parent="1">
          <mxGeometry x="10" y="240" width="40" height="40" as="geometry" />
        </mxCell>
        <mxCell id="I34_Xlb9d7zJ8clCrRhX-11" style="edgeStyle=orthogonalEdgeStyle;rounded=0;orthogonalLoop=1;jettySize=auto;html=1;entryX=0.5;entryY=0;entryDx=0;entryDy=0;entryPerimeter=0;" edge="1" parent="1" source="I34_Xlb9d7zJ8clCrRhX-13" target="I34_Xlb9d7zJ8clCrRhX-16">
          <mxGeometry relative="1" as="geometry" />
        </mxCell>
        <mxCell id="I34_Xlb9d7zJ8clCrRhX-12" style="edgeStyle=orthogonalEdgeStyle;rounded=0;orthogonalLoop=1;jettySize=auto;html=1;" edge="1" parent="1" source="I34_Xlb9d7zJ8clCrRhX-13" target="I34_Xlb9d7zJ8clCrRhX-21">
          <mxGeometry relative="1" as="geometry" />
        </mxCell>
        <mxCell id="I34_Xlb9d7zJ8clCrRhX-13" value="5" style="strokeWidth=2;html=1;shape=mxgraph.flowchart.start_2;whiteSpace=wrap;container=0;" vertex="1" parent="1">
          <mxGeometry x="120" y="180" width="40" height="40" as="geometry" />
        </mxCell>
        <mxCell id="I34_Xlb9d7zJ8clCrRhX-14" style="edgeStyle=orthogonalEdgeStyle;rounded=0;orthogonalLoop=1;jettySize=auto;html=1;entryX=1;entryY=0.5;entryDx=0;entryDy=0;entryPerimeter=0;" edge="1" parent="1" source="I34_Xlb9d7zJ8clCrRhX-16" target="I34_Xlb9d7zJ8clCrRhX-13">
          <mxGeometry relative="1" as="geometry">
            <Array as="points">
              <mxPoint x="200" y="260" />
              <mxPoint x="200" y="200" />
            </Array>
          </mxGeometry>
        </mxCell>
        <mxCell id="I34_Xlb9d7zJ8clCrRhX-15" style="edgeStyle=orthogonalEdgeStyle;rounded=0;orthogonalLoop=1;jettySize=auto;html=1;entryX=0.5;entryY=0;entryDx=0;entryDy=0;entryPerimeter=0;" edge="1" parent="1" source="I34_Xlb9d7zJ8clCrRhX-16" target="I34_Xlb9d7zJ8clCrRhX-18">
          <mxGeometry relative="1" as="geometry" />
        </mxCell>
        <mxCell id="I34_Xlb9d7zJ8clCrRhX-16" value="6" style="strokeWidth=2;html=1;shape=mxgraph.flowchart.start_2;whiteSpace=wrap;container=0;" vertex="1" parent="1">
          <mxGeometry x="120" y="250" width="40" height="40" as="geometry" />
        </mxCell>
        <mxCell id="I34_Xlb9d7zJ8clCrRhX-17" value="" style="edgeStyle=orthogonalEdgeStyle;rounded=0;orthogonalLoop=1;jettySize=auto;html=1;" edge="1" parent="1" source="I34_Xlb9d7zJ8clCrRhX-18" target="I34_Xlb9d7zJ8clCrRhX-19">
          <mxGeometry relative="1" as="geometry" />
        </mxCell>
        <mxCell id="I34_Xlb9d7zJ8clCrRhX-18" value="7" style="strokeWidth=2;html=1;shape=mxgraph.flowchart.start_2;whiteSpace=wrap;container=0;" vertex="1" parent="1">
          <mxGeometry x="120" y="340" width="40" height="40" as="geometry" />
        </mxCell>
        <mxCell id="I34_Xlb9d7zJ8clCrRhX-19" value="STOP" style="strokeWidth=2;html=1;shape=mxgraph.flowchart.start_2;whiteSpace=wrap;container=0;direction=south;" vertex="1" parent="1">
          <mxGeometry x="120" y="440" width="40" height="40" as="geometry" />
        </mxCell>
        <mxCell id="I34_Xlb9d7zJ8clCrRhX-20" value="" style="edgeStyle=orthogonalEdgeStyle;rounded=0;orthogonalLoop=1;jettySize=auto;html=1;" edge="1" parent="1" source="I34_Xlb9d7zJ8clCrRhX-21" target="I34_Xlb9d7zJ8clCrRhX-22">
          <mxGeometry relative="1" as="geometry" />
        </mxCell>
        <mxCell id="I34_Xlb9d7zJ8clCrRhX-21" value="8" style="strokeWidth=2;html=1;shape=mxgraph.flowchart.start_2;whiteSpace=wrap;container=0;" vertex="1" parent="1">
          <mxGeometry x="70" y="260" width="40" height="40" as="geometry" />
        </mxCell>
        <mxCell id="I34_Xlb9d7zJ8clCrRhX-22" value="STOP" style="strokeWidth=2;html=1;shape=mxgraph.flowchart.start_2;whiteSpace=wrap;container=0;direction=south;" vertex="1" parent="1">
          <mxGeometry x="70" y="380" width="40" height="40" as="geometry" />
        </mxCell>
        <mxCell id="I34_Xlb9d7zJ8clCrRhX-23" value="T" style="text;strokeColor=none;align=center;fillColor=none;html=1;verticalAlign=middle;whiteSpace=wrap;rounded=0;container=0;" vertex="1" parent="1">
          <mxGeometry x="150" y="280" width="20" height="20" as="geometry" />
        </mxCell>
        <mxCell id="I34_Xlb9d7zJ8clCrRhX-24" value="F" style="text;strokeColor=none;align=center;fillColor=none;html=1;verticalAlign=middle;whiteSpace=wrap;rounded=0;container=0;" vertex="1" parent="1">
          <mxGeometry x="150" y="240" width="30" height="20" as="geometry" />
        </mxCell>
        <mxCell id="I34_Xlb9d7zJ8clCrRhX-25" value="a" style="text;strokeColor=none;align=center;fillColor=none;html=1;verticalAlign=middle;whiteSpace=wrap;rounded=0;" vertex="1" parent="1">
          <mxGeometry x="110" y="40" width="20" height="20" as="geometry" />
        </mxCell>
        <mxCell id="I34_Xlb9d7zJ8clCrRhX-26" value="b" style="text;strokeColor=none;align=center;fillColor=none;html=1;verticalAlign=middle;whiteSpace=wrap;rounded=0;" vertex="1" parent="1">
          <mxGeometry x="150" y="90" width="20" height="20" as="geometry" />
        </mxCell>
        <mxCell id="I34_Xlb9d7zJ8clCrRhX-27" value="c" style="text;strokeColor=none;align=center;fillColor=none;html=1;verticalAlign=middle;whiteSpace=wrap;rounded=0;" vertex="1" parent="1">
          <mxGeometry x="155" y="160" width="20" height="20" as="geometry" />
        </mxCell>
        <mxCell id="I34_Xlb9d7zJ8clCrRhX-28" value="d" style="text;strokeColor=none;align=center;fillColor=none;html=1;verticalAlign=middle;whiteSpace=wrap;rounded=0;" vertex="1" parent="1">
          <mxGeometry x="150" y="210" width="20" height="20" as="geometry" />
        </mxCell>
        <mxCell id="I34_Xlb9d7zJ8clCrRhX-29" value="e" style="text;strokeColor=none;align=center;fillColor=none;html=1;verticalAlign=middle;whiteSpace=wrap;rounded=0;" vertex="1" parent="1">
          <mxGeometry x="140" y="310" width="20" height="20" as="geometry" />
        </mxCell>
        <mxCell id="I34_Xlb9d7zJ8clCrRhX-34" value="j" style="text;strokeColor=none;align=center;fillColor=none;html=1;verticalAlign=middle;whiteSpace=wrap;rounded=0;" vertex="1" parent="1">
          <mxGeometry x="140" y="400" width="20" height="20" as="geometry" />
        </mxCell>
        <mxCell id="I34_Xlb9d7zJ8clCrRhX-35" value="k" style="text;strokeColor=none;align=center;fillColor=none;html=1;verticalAlign=middle;whiteSpace=wrap;rounded=0;" vertex="1" parent="1">
          <mxGeometry x="90" y="220" width="20" height="20" as="geometry" />
        </mxCell>
        <mxCell id="I34_Xlb9d7zJ8clCrRhX-38" value="l" style="text;strokeColor=none;align=center;fillColor=none;html=1;verticalAlign=middle;whiteSpace=wrap;rounded=0;" vertex="1" parent="1">
          <mxGeometry x="90" y="330" width="20" height="20" as="geometry" />
        </mxCell>
        <mxCell id="I34_Xlb9d7zJ8clCrRhX-39" value="m" style="text;strokeColor=none;align=center;fillColor=none;html=1;verticalAlign=middle;whiteSpace=wrap;rounded=0;" vertex="1" parent="1">
          <mxGeometry x="40" y="70" width="20" height="20" as="geometry" />
        </mxCell>
        <mxCell id="I34_Xlb9d7zJ8clCrRhX-40" value="n" style="text;strokeColor=none;align=center;fillColor=none;html=1;verticalAlign=middle;whiteSpace=wrap;rounded=0;" vertex="1" parent="1">
          <mxGeometry x="30" y="180" width="20" height="20" as="geometry" />
        </mxCell>
        <mxCell id="7rlMHjFK86KTOR0Zxe6p-1" value="T" style="text;strokeColor=none;align=center;fillColor=none;html=1;verticalAlign=middle;whiteSpace=wrap;rounded=0;" vertex="1" parent="1">
          <mxGeometry x="70" y="75" width="20" height="10" as="geometry" />
        </mxCell>
        <mxCell id="7rlMHjFK86KTOR0Zxe6p-2" value="F" style="text;strokeColor=none;align=center;fillColor=none;html=1;verticalAlign=middle;whiteSpace=wrap;rounded=0;" vertex="1" parent="1">
          <mxGeometry x="130" y="70" width="20" height="20" as="geometry" />
        </mxCell>
        <mxCell id="7rlMHjFK86KTOR0Zxe6p-3" value="h" style="text;strokeColor=none;align=center;fillColor=none;html=1;verticalAlign=middle;whiteSpace=wrap;rounded=0;" vertex="1" parent="1">
          <mxGeometry x="200" y="220" width="20" height="20" as="geometry" />
        </mxCell>
      </root>
    </mxGraphModel>
  </diagram>
  <diagram id="azjnZxpnWOAOXzJOSZPh" name="Page-4">
    <mxGraphModel dx="1050" dy="574" grid="1" gridSize="10" guides="1" tooltips="1" connect="1" arrows="1" fold="1" page="1" pageScale="1" pageWidth="850" pageHeight="1100" math="0" shadow="0">
      <root>
        <mxCell id="0" />
        <mxCell id="1" parent="0" />
        <mxCell id="STrLz_ojfTyXnoEyUsie-3" value="" style="group" vertex="1" connectable="0" parent="1">
          <mxGeometry x="45" y="230" width="75" height="98.60000000000002" as="geometry" />
        </mxCell>
        <mxCell id="STrLz_ojfTyXnoEyUsie-1" value="" style="image;aspect=fixed;perimeter=ellipsePerimeter;html=1;align=center;shadow=0;dashed=0;spacingTop=3;image=img/lib/active_directory/databases.svg;" vertex="1" parent="STrLz_ojfTyXnoEyUsie-3">
          <mxGeometry x="5" width="70" height="68.6" as="geometry" />
        </mxCell>
        <mxCell id="STrLz_ojfTyXnoEyUsie-2" value="On Premise DB" style="text;strokeColor=none;align=center;fillColor=none;html=1;verticalAlign=middle;whiteSpace=wrap;rounded=0;" vertex="1" parent="STrLz_ojfTyXnoEyUsie-3">
          <mxGeometry y="68.60000000000002" width="75" height="30" as="geometry" />
        </mxCell>
      </root>
    </mxGraphModel>
  </diagram>
</mxfile>
